<?xml version="1.0" standalone="no"?>
<!DOCTYPE svg PUBLIC "-//W3C//DTD SVG 20010904//EN"
 "http://www.w3.org/TR/2001/REC-SVG-20010904/DTD/svg10.dtd">
<svg version="1.0" xmlns="http://www.w3.org/2000/svg"
 width="500.000000pt" height="500.000000pt" viewBox="0 0 500.000000 500.000000"
 preserveAspectRatio="xMidYMid meet">

<g transform="translate(0.000000,500.000000) scale(0.100000,-0.100000)"
fill="#000000" stroke="none">
<path d="M2420 3798 c-18 -13 -43 -36 -54 -51 -20 -27 -21 -42 -24 -333 l-3
-304 110 0 110 0 3 243 c3 267 8 291 68 322 27 14 28 18 19 43 -34 90 -153
131 -229 80z"/>
<path d="M1530 3595 l0 -35 370 0 370 0 0 35 0 35 -370 0 -370 0 0 -35z"/>
<path d="M2670 3623 c-39 -14 -40 -27 -40 -370 l0 -333 65 0 65 0 0 330 0 331
-25 24 c-24 25 -36 28 -65 18z"/>
<path d="M2814 3608 c3 -13 6 -29 6 -35 0 -10 72 -13 325 -13 l325 0 0 35 0
35 -331 0 -331 0 6 -22z"/>
<path d="M1635 3193 l-138 -307 6 -77 c6 -97 38 -171 100 -232 l44 -45 64 32
c55 27 74 31 144 31 70 0 89 -4 144 -31 l64 -32 43 44 c63 65 94 136 101 230
l6 77 -154 309 -154 308 -66 0 -66 0 -138 -307z m358 -8 l147 -295 -285 0
-285 0 24 54 c110 248 242 536 246 536 3 0 71 -133 153 -295z m147 -395 l0
-30 -285 0 -285 0 0 30 0 30 285 0 285 0 0 -30z"/>
<path d="M2941 3192 l-154 -308 5 -75 c9 -137 85 -251 206 -307 49 -23 70 -27
147 -27 79 0 97 4 149 29 122 60 194 168 203 306 l6 76 -138 307 -138 307 -66
0 -66 0 -154 -308z m333 47 c59 -133 119 -265 132 -295 l24 -54 -285 0 -285 0
147 295 c82 162 150 295 153 295 3 0 54 -109 114 -241z m156 -449 l0 -30 -285
0 -285 0 0 30 0 30 285 0 285 0 0 -30z"/>
<path d="M2340 2660 l0 -390 160 0 160 0 0 295 0 295 -27 0 c-54 0 -73 33 -73
124 l0 66 -110 0 -110 0 0 -390z"/>
<path d="M1753 2514 c-53 -19 -128 -85 -154 -136 -111 -217 77 -468 315 -418
110 23 192 104 222 220 17 69 10 130 -26 199 -26 52 -101 116 -157 135 -57 20
-144 19 -200 0z m137 -78 c0 -25 8 -43 30 -64 22 -23 30 -40 30 -66 0 -32 -3
-36 -26 -36 l-26 0 26 -31 c22 -26 26 -40 26 -95 l0 -64 -30 0 c-27 0 -30 -3
-30 -30 0 -28 -3 -30 -35 -30 -33 0 -35 2 -35 35 0 23 -6 38 -15 42 -21 7 -45
55 -45 88 0 21 5 25 29 25 23 0 30 -5 34 -29 9 -43 67 -54 67 -12 0 24 -17 37
-57 46 -52 11 -73 47 -73 121 l0 64 30 0 c28 0 30 3 30 35 0 33 2 35 35 35 33
0 35 -2 35 -34z"/>
<path d="M1820 2321 c0 -11 7 -27 16 -35 24 -24 54 -20 54 7 0 13 -5 28 -12
35 -20 20 -58 15 -58 -7z"/>
<path d="M3087 2363 c-4 -3 -7 -105 -7 -225 l0 -218 65 0 65 0 0 209 c0 115
-3 216 -6 225 -5 12 -20 16 -58 16 -29 0 -56 -3 -59 -7z"/>
<path d="M2826 2225 c-3 -9 -6 -82 -6 -161 l0 -144 65 0 66 0 -3 158 -3 157
-56 3 c-45 2 -58 0 -63 -13z"/>
<path d="M3347 2233 c-4 -3 -7 -75 -7 -160 l0 -153 65 0 65 0 0 148 c0 102 -4
152 -12 160 -13 13 -100 17 -111 5z"/>
<path d="M2366 2183 c80 -124 128 -193 134 -193 6 0 54 69 134 193 l18 27
-152 0 -152 0 18 -27z"/>
<path d="M2491 1807 c-13 -21 -12 -21 5 -5 10 10 16 20 13 22 -3 3 -11 -5 -18
-17z"/>
<path d="M2438 1783 c6 -2 18 -2 25 0 6 3 1 5 -13 5 -14 0 -19 -2 -12 -5z"/>
<path d="M1170 1460 l0 -230 88 0 c138 0 182 32 182 136 0 53 -27 104 -55 104
-8 0 -1 12 16 29 35 36 39 89 10 138 -22 36 -81 53 -181 53 l-60 0 0 -230z
m154 144 c17 -16 21 -61 8 -81 -4 -6 -20 -15 -35 -18 l-27 -7 0 61 c0 54 2 61
19 61 11 0 27 -7 35 -16z m-4 -174 c49 -26 28 -130 -25 -130 -24 0 -25 2 -25
70 0 74 7 83 50 60z"/>
<path d="M1605 1678 c-2 -7 -20 -98 -40 -203 -19 -104 -38 -202 -41 -217 -6
-28 -5 -28 45 -28 49 0 51 1 51 28 0 58 10 73 44 70 28 -3 32 -7 40 -50 l9
-48 44 0 c30 0 43 4 43 14 0 13 -47 275 -71 394 l-10 52 -55 0 c-35 0 -56 -5
-59 -12z m80 -260 c4 -25 1 -28 -21 -28 -24 0 -26 3 -21 33 3 17 9 55 13 82
l8 50 8 -55 c4 -30 10 -67 13 -82z"/>
<path d="M1897 1683 c-4 -3 -7 -107 -7 -230 l0 -223 105 0 105 0 0 35 0 35
-55 0 -55 0 0 195 0 195 -43 0 c-24 0 -47 -3 -50 -7z"/>
<path d="M2940 1461 l0 -231 45 0 45 0 0 113 1 112 46 -112 c45 -113 45 -113
79 -113 l34 0 0 230 0 230 -40 0 -40 0 0 -107 c0 -58 -3 -103 -7 -99 -5 4 -26
51 -49 104 -40 96 -41 97 -77 100 l-37 3 0 -230z"/>
<path d="M3365 1681 c-11 -5 -29 -19 -40 -31 -18 -20 -20 -39 -23 -177 -4
-200 8 -231 100 -248 92 -17 158 36 158 128 l0 48 -47 -3 -48 -3 -3 -45 c-4
-49 -17 -64 -44 -49 -17 9 -18 23 -16 162 l3 152 25 0 c22 0 26 -5 30 -45 l5
-45 48 -3 47 -3 0 45 c0 58 -17 94 -51 112 -30 15 -112 18 -144 5z"/>
<path d="M3660 1460 l0 -230 105 0 105 0 0 35 0 35 -55 0 -55 0 0 65 0 65 40
0 c39 0 40 1 40 34 0 33 -2 35 -37 38 l-38 3 -3 58 -3 57 56 0 56 0 -3 33 -3
32 -102 3 -103 3 0 -231z"/>
<path d="M4020 1686 c0 -3 -18 -99 -40 -215 -22 -115 -40 -217 -40 -225 0 -12
11 -16 45 -16 43 0 44 1 50 38 10 59 13 62 44 62 24 0 32 -5 35 -22 17 -83 13
-78 62 -78 l45 0 -6 33 c-4 17 -23 120 -43 227 l-37 195 -58 3 c-31 2 -57 1
-57 -2z m74 -233 c7 -59 6 -63 -14 -63 -22 0 -24 11 -13 99 7 64 18 50 27 -36z"/>
<path d="M2570 1659 c-10 -13 -29 -20 -57 -21 -24 -1 -43 -6 -43 -11 0 -5 15
-7 35 -4 19 3 48 2 65 -3 31 -9 43 3 14 14 -13 5 -14 9 -4 21 7 9 11 17 9 19
-2 2 -11 -5 -19 -15z"/>
<path d="M2215 1478 c-4 -10 -4 -26 0 -35 8 -17 8 -17 12 0 3 9 3 25 0 35 -4
16 -4 16 -12 0z"/>
<path d="M2290 1435 c0 -14 5 -25 10 -25 6 0 10 11 10 25 0 14 -4 25 -10 25
-5 0 -10 -11 -10 -25z"/>
</g>
</svg>
